<svg id="b15b120d-4f3e-4d0c-8013-c4f3dc59b3f9" data-name="Layer 1" xmlns="http://www.w3.org/2000/svg" viewBox="0 0 378.34 368.79"><title>key2-logo</title><rect x="317.58" y="58.98" width="46.68" height="62.21" style="fill:#23a7e0"/><path d="M175.7,146.91V36.78a25.53,25.53,0,0,0-25.46-25.45H42.72A25.53,25.53,0,0,0,17.26,36.79V146.91a25.53,25.53,0,0,0,25.45,25.46H150.25A25.53,25.53,0,0,0,175.7,146.91ZM66.75,139.16H59.93a12.75,12.75,0,0,1-12.72-12.72V57.26A12.75,12.75,0,0,1,59.93,44.54h6.82A12.75,12.75,0,0,1,79.48,57.26v69.18A12.75,12.75,0,0,1,66.75,139.16Z" style="fill:#6e6f71"/><rect x="257.98" y="38.23" width="46.68" height="82.95" style="fill:#ec5c2f"/><rect x="194.44" y="66.16" width="46.68" height="55.02" style="fill:#f2b61b"/><line x1="194.44" y1="140.25" x2="364.86" y2="140.25" style="fill:#6e6f71;stroke:#6e6f71;stroke-miterlimit:10;stroke-width:12.2751999814008px"/><path d="M17.26,196h34v71h.66c2-7,4-14.15,6.4-21.59L74.62,196h37.5l-32,71,32.21,90.68H75.06L57.19,295.52l-5.95,12.23v49.9h-34Z" style="fill:#6e6f71"/><path d="M185.14,289H152.71V325.5h36.4v32.15H118.52V196h68.16v32.15h-34v30.22h32.43Z" style="fill:#6e6f71"/><path d="M226.61,357.65v-59L194,196h36.4l8.82,37.67c2.43,10.07,4.63,21.83,6.4,33.34H246c1.32-11.27,3.09-22.79,5.29-34.06L258.37,196h35.3L260.8,297.2v60.45Z" style="fill:#6e6f71"/><path d="M290.77,357.65V345.38l13.5-18.4c18.89-26.25,41.46-56.18,41.46-86.11,0-17.66-7.85-28.46-22.82-28.46-11.53,0-18.89,6.14-23.06,8.84L295.19,207a49.91,49.91,0,0,1,31.16-10.8c26.49,0,38,19.63,38,43.67,0,29.93-19.62,58.88-39.25,85.87l-10.79,14.72V341h53.23v16.68Z" style="fill:#6e6f71"/></svg>