<?xml version="1.0" standalone="no"?>
<!DOCTYPE svg PUBLIC "-//W3C//DTD SVG 20010904//EN"
 "http://www.w3.org/TR/2001/REC-SVG-20010904/DTD/svg10.dtd">
<svg version="1.0" xmlns="http://www.w3.org/2000/svg"
 width="380.000000pt" height="110.000000pt" viewBox="0 0 380.000000 110.000000"
 preserveAspectRatio="xMidYMid meet">
<metadata>
Created by potrace 1.16, written by Peter Selinger 2001-2019
</metadata>
<g transform="translate(0.000000,110.000000) scale(0.100000,-0.100000)"
fill="#000000" stroke="none">
<path d="M642 948 c-7 -7 -12 -18 -12 -24 0 -56 -135 -177 -241 -217 -26 -10
-51 -27 -57 -40 -6 -12 -11 -16 -11 -10 -1 19 -48 -5 -54 -27 -3 -13 0 -17 9
-13 8 3 14 9 14 15 0 5 8 8 18 7 9 -1 19 0 22 1 3 1 20 3 39 6 19 2 40 9 48
16 7 6 16 8 20 4 3 -3 12 3 20 14 8 11 21 20 29 20 8 0 23 9 34 20 16 16 25
18 46 10 22 -9 25 -8 21 5 -8 18 21 48 39 41 10 -4 11 1 4 19 -9 25 2 36 15
15 10 -16 23 -12 30 9 7 22 65 35 65 14 0 -7 -7 -13 -15 -13 -8 0 -15 -4 -15
-10 0 -5 6 -10 13 -10 7 0 17 -10 22 -22 6 -13 22 -29 38 -36 15 -7 27 -17 27
-22 0 -14 92 -71 106 -66 8 3 13 0 11 -6 -1 -6 25 -20 58 -31 l60 -21 -39 -11
c-21 -6 -45 -20 -52 -30 -17 -23 -18 -67 -2 -83 7 -7 8 -12 2 -12 -14 0 -6
-175 12 -261 5 -24 2 -27 -32 -34 -25 -4 -39 -2 -44 6 -6 9 -19 8 -54 -4 l-45
-16 -6 32 c-3 18 -7 75 -9 128 -2 72 -7 104 -20 124 -16 25 -21 26 -64 20 -26
-4 -52 -10 -57 -13 -13 -9 -13 -85 0 -94 6 -5 5 -8 -4 -8 -9 0 -12 -9 -9 -30
3 -16 0 -30 -5 -30 -5 0 -7 -21 -5 -47 3 -43 1 -47 -24 -54 -50 -13 -185 -21
-192 -11 -7 11 4 72 29 157 10 33 20 99 22 147 4 78 3 89 -14 95 -39 16 -163
1 -163 -19 0 -7 17 -9 53 -5 62 8 74 1 87 -43 8 -27 4 -44 -20 -102 -33 -78
-60 -182 -60 -232 0 -25 7 -38 26 -51 28 -18 70 -20 344 -17 74 1 169 -1 210
-4 65 -5 78 -4 99 13 24 19 24 21 23 203 0 102 4 192 9 201 5 10 27 20 49 24
22 4 40 11 40 15 0 5 9 12 21 15 18 6 20 12 15 38 -4 18 -13 38 -20 45 -13 13
-85 46 -169 77 -21 8 -51 24 -67 35 -15 11 -33 20 -39 20 -6 0 -11 5 -11 11 0
6 -36 47 -80 90 -80 79 -111 94 -138 67z"/>
<path d="M1320 850 c0 -25 4 -30 25 -30 l25 0 0 -185 0 -185 -25 0 c-21 0 -25
-5 -25 -30 l0 -30 160 0 160 0 0 90 0 90 -35 0 -35 0 0 -60 0 -60 -60 0 -60 0
0 185 0 185 25 0 c21 0 25 5 25 30 l0 30 -90 0 -90 0 0 -30z"/>
<path d="M2410 851 c0 -23 5 -30 23 -33 22 -3 22 -5 25 -185 l2 -183 -25 0
c-21 0 -25 -5 -25 -30 l0 -30 85 0 85 0 0 30 c0 25 -4 30 -25 30 -22 0 -25 4
-25 38 0 26 7 45 20 57 11 10 22 16 23 14 10 -12 57 -98 57 -103 0 -3 -7 -6
-15 -6 -10 0 -15 -10 -15 -30 l0 -30 80 0 80 0 0 30 c0 22 -5 30 -18 30 -11 0
-34 28 -65 82 l-48 81 38 39 c22 22 47 38 60 38 20 0 23 5 23 35 l0 35 -80 0
-80 0 0 -35 c0 -21 5 -35 12 -35 13 0 -51 -69 -64 -70 -5 0 -8 59 -8 130 l0
130 -60 0 c-60 0 -60 0 -60 -29z"/>
<path d="M3603 838 c-29 -8 -33 -13 -33 -43 0 -32 -2 -35 -30 -35 -28 0 -30
-3 -30 -35 0 -32 2 -35 30 -35 l31 0 -2 -132 c-1 -132 -1 -132 26 -156 22 -18
37 -22 74 -20 44 3 46 5 49 35 3 30 1 32 -35 35 l-38 3 -3 118 -3 117 41 0
c39 0 40 1 40 35 0 34 -1 35 -39 35 -40 0 -40 0 -43 43 l-3 43 -32 -8z"/>
<path d="M2175 760 c-50 -11 -74 -29 -97 -73 -28 -55 -31 -165 -5 -222 28 -62
60 -80 139 -80 62 0 69 2 101 33 75 72 78 239 6 308 -31 29 -94 44 -144 34z
m75 -70 c24 -13 40 -62 40 -122 0 -88 -47 -140 -105 -118 -61 23 -75 180 -20
227 28 25 55 29 85 13z"/>
<path d="M1746 729 c-41 -36 -56 -79 -56 -166 0 -74 10 -102 50 -145 27 -28
38 -33 93 -36 49 -2 69 1 94 17 53 33 66 64 71 161 4 77 2 93 -18 127 -30 55
-65 73 -139 73 -53 0 -64 -4 -95 -31z m141 -44 c23 -16 43 -70 43 -117 0 -44
-29 -104 -55 -116 -73 -33 -133 63 -105 167 20 74 68 100 117 66z"/>
<path d="M2846 730 c-41 -37 -59 -85 -59 -160 0 -72 16 -120 53 -155 24 -23
41 -29 87 -32 109 -7 164 50 171 179 5 84 -10 130 -56 168 -32 26 -44 30 -99
30 -55 0 -66 -3 -97 -30z m129 -36 c45 -18 65 -156 31 -210 -32 -48 -101 -51
-126 -5 -17 34 -23 104 -11 148 16 59 58 85 106 67z"/>
<path d="M3130 725 c0 -31 3 -35 25 -35 l25 0 0 -115 c0 -63 5 -125 11 -138
23 -51 104 -72 162 -43 15 8 27 11 27 5 0 -5 27 -9 60 -9 l60 0 0 30 c0 25 -4
30 -25 30 l-25 0 0 155 0 155 -65 0 -65 0 0 -35 c0 -31 3 -35 25 -35 25 0 25
-1 25 -85 0 -53 -6 -99 -15 -121 -13 -31 -18 -35 -47 -32 -49 5 -58 32 -58
181 l0 127 -60 0 -60 0 0 -35z"/>
</g>
</svg>
